<?xml version="1.0" encoding="utf-8"?>
<!-- Svg Vector Icons : http://www.onlinewebfonts.com/icon -->
<!DOCTYPE svg PUBLIC "-//W3C//DTD SVG 1.1//EN" "http://www.w3.org/Graphics/SVG/1.1/DTD/svg11.dtd">
<svg version="1.1" xmlns="http://www.w3.org/2000/svg" xmlns:xlink="http://www.w3.org/1999/xlink" x="0px" y="0px" viewBox="0 0 256 256" enable-background="new 0 0 256 256" xml:space="preserve">
<metadata> Svg Vector Icons : http://www.onlinewebfonts.com/icon </metadata>
<g><g><g><path fill="#000000" d="M246,47.4v161.2c0,1.4-0.8,2.7-2.1,3.3c-0.5,0.2-1.1,0.4-1.6,0.4c-0.8,0-1.6-0.2-2.3-0.8l-58.5-45.2v23.1c0,2-1.7,3.7-3.7,3.7H13.7c-2,0-3.7-1.6-3.7-3.7V66.5c0-2,1.7-3.7,3.7-3.7h164.1c2,0,3.7,1.7,3.7,3.7v28.8l58.4-50.7c1.1-0.9,2.6-1.2,3.9-0.6C245.2,44.7,246,46,246,47.4z"/></g><g></g><g></g><g></g><g></g><g></g><g></g><g></g><g></g><g></g><g></g><g></g><g></g><g></g><g></g><g></g></g></g>
</svg>